<svg width="165" height="66" viewBox="0 0 165 66" fill="none" xmlns="http://www.w3.org/2000/svg">
<path fill-rule="evenodd" clip-rule="evenodd" d="M4.63 65.96C3.58001 65.96 2.67001 65.7 2.07001 65.25L1.89001 63.3C2.71 63.95 3.60001 64.26 4.54001 64.26C5.3 64.26 5.72001 63.95 5.72001 63.45C5.72001 62.95 5.43001 62.7 4.38 62.33C2.91001 61.82 2.13 60.88 2.13 59.73C2.13 58.31 3.20001 57.18 5.06001 57.18C6.11001 57.18 6.76001 57.45 7.13001 57.68L6.97001 59.39C6.57001 59.13 5.88 58.86 5.21 58.86C4.48001 58.86 4.14001 59.17 4.14001 59.58C4.14001 59.97 4.43001 60.23 5.43001 60.55C6.79001 61 7.78 61.93 7.78 63.24C7.78 64.88 6.71 65.96 4.63 65.96ZM8.44 49.75H0.850006V12.25H8.44V49.75ZM17.59 65.96C15.25 65.96 13.04 64.26 13.04 61.55C13.04 58.87 15.25 57.17 17.59 57.17C19.94 57.17 22.15 58.87 22.15 61.55C22.15 64.26 19.93 65.96 17.59 65.96ZM18.25 36.79V49.23H10.71V22.04H17.88V27.04C19.58 23.51 22.68 21.41 26.76 21.41C27.2378 21.41 27.5324 21.4507 28.0406 21.521C28.1493 21.536 28.2678 21.5524 28.4 21.57V28.47C27.08 28.21 26.33 28.16 25.48 28.16C20.27 28.15 18.25 31.84 18.25 36.79ZM33.31 65.76H27.86V57.37H29.92V64.01H33.31V65.76ZM40.86 65.76H38.8V57.37H40.86V65.76ZM49.82 65.76H46.97V57.37H49.82C52.26 57.37 54.35 58.95 54.35 61.56C54.35 64.18 52.26 65.76 49.82 65.76ZM43.09 50.05C34.53 50.05 28.9 44.32 28.9 35.63C28.9 26.99 34.59 21.25 43.2 21.25C51.65 21.25 57.24 26.99 57.24 35.63C57.23 44.37 51.64 50.05 43.09 50.05ZM74.1 59.01H71.56V65.77H69.51V59H66.95V57.38H74.1V59.01ZM71.98 27.46C67.46 27.46 66.03 30.68 66.03 34.63V49.23H58.54V22.04H65.71V25.83C67.88 22.94 70.92 21.3 74.81 21.3C80.59 21.3 84.31 24.72 84.31 31.04V49.22H76.66V33.36C76.66 29.99 76.03 27.46 71.98 27.46ZM84.47 65.76L82.19 62.46H81.46V65.76H79.48V57.37H82.64C84.09 57.37 85.37 58.33 85.37 59.91C85.37 60.89 84.79 61.68 84.08 62.01L86.77 65.76H84.47ZM97.18 65.76L96.51 64.01H93.73L93.08 65.76H91.14L94.48 57.3H95.89L99.22 65.76H97.18ZM107.45 65.76H104.59V57.37H107.45C109.89 57.37 111.99 58.95 111.99 61.56C111.99 64.18 109.89 65.76 107.45 65.76ZM113.5 18.63H95.26V15.73L91.76 18.9L88.27 22.07L91.76 25.25L95.26 28.41V25.72H106.46V22.85L113.45 29.2L106.46 35.55V32.68H95.26V49.19H86.91V11.68L113.5 11.69V18.63ZM119.88 65.76H117.83V57.37H119.88V65.76ZM133.93 65.86H132.9L129.61 62.28C129.08 61.7 128.48 60.99 128.03 60.44L128 60.45C128.03 61.04 128.04 61.68 128.04 62.21V65.76H125.98V57.37H127.64L130.51 60.5C130.9 60.93 131.5 61.62 131.88 62.1L131.91 62.09C131.88 61.59 131.87 61.05 131.87 60.53V57.38H133.93V65.86ZM147.47 65.09C146.76 65.65 145.71 65.96 144.34 65.96C142.01 65.96 139.65 64.44 139.65 61.57C139.65 58.68 142.07 57.18 144.3 57.18C145.48 57.18 146.4 57.47 146.99 57.85L146.83 59.64C146.25 59.22 145.44 58.94 144.51 58.94C142.97 58.94 141.7 59.96 141.7 61.62C141.7 63.2 142.9 64.22 144.44 64.22C144.93 64.22 145.3 64.14 145.59 63.97V62.79H144.05V61.22H147.47V65.09ZM140.14 49.18L131.87 36.21L123.44 49.18H114.11L127.31 29.53L115.12 11.68H124.77L132.19 23.65L139.88 11.68H149L136.86 29.58L150.06 49.18H140.14ZM157.26 46.12H156.08V49.17H155.48V46.12H154.31V45.59H157.26V46.12ZM161.22 49.16H160.67V46.16L159.74 49.16H159.2L158.23 46.11V49.16H157.68V45.58H158.56L159.47 48.44L160.35 45.58H161.22V49.16ZM164.38 15.69L149.4 0.840027H164.38V15.69ZM36.44 35.64C36.44 30.21 38.94 26.94 42.98 26.94C47.18 26.94 49.67 30.15 49.67 35.58C49.67 41.17 47.23 44.43 43.09 44.43C38.88 44.43 36.44 41.22 36.44 35.64ZM48.95 59.13H49.58C51.05 59.13 52.29 59.94 52.29 61.57C52.29 63.2 51.05 64.02 49.58 64.02H48.95V59.13ZM95.13 59.94H95.1C95.03 60.24 94.93 60.56 94.84 60.8L94.23 62.48H96.01L95.4 60.8C95.3 60.56 95.21 60.24 95.13 59.94ZM106.58 59.13H107.21C108.68 59.13 109.93 59.94 109.93 61.57C109.93 63.2 108.68 64.02 107.21 64.02H106.58V59.13ZM82.34 58.98H81.46V60.86H82.34C82.87 60.86 83.4 60.57 83.4 59.92C83.4 59.28 82.87 58.98 82.34 58.98ZM15.12 61.55C15.12 59.99 16.32 58.96 17.59 58.96C18.86 58.96 20.07 59.99 20.07 61.55C20.07 63.13 18.86 64.16 17.59 64.16C16.32 64.16 15.12 63.13 15.12 61.55Z" fill="white"/>
</svg>
