<svg version="1.1" id="Layer_1" xmlns:x="ns_extend;" xmlns:i="ns_ai;" xmlns:graph="ns_graphs;" xmlns="http://www.w3.org/2000/svg" xmlns:xlink="http://www.w3.org/1999/xlink" x="0px" y="0px" viewBox="0 0 201.23 100" style="enable-background:new 0 0 201.23 100;" xml:space="preserve">
 <style type="text/css">
  .st0{fill-rule:evenodd;clip-rule:evenodd;fill:#ED1C24;}
	.st1{fill-rule:evenodd;clip-rule:evenodd;fill:#FFFFFF;}
	.st2{fill-rule:evenodd;clip-rule:evenodd;fill:#FFFFFF;filter:url(#Adobe_OpacityMaskFilter);}
	.st3{mask:url(#mask0_1_);}
 </style>
 <metadata>
  <sfw xmlns="ns_sfw;">
   <slices>
   </slices>
   <sliceSourceBounds bottomLeftOrigin="true" height="100" width="201.23" x="-77.82" y="0">
   </sliceSourceBounds>
  </sfw>
 </metadata>
 <g>
  <path class="st0" d="M0,0v85.12L16.34,100h184.89V0H0z">
  </path>
  <path class="st1" d="M27.84,73.75h7.59v-37.5h-7.59V73.75z">
  </path>
  <path class="st1" d="M55.4,52.46c-1.32-0.26-2.07-0.31-2.92-0.31c-5.2,0-7.23,3.68-7.23,8.64v12.44h-7.54V46.04h7.17v5
		c1.7-3.53,4.8-5.63,8.88-5.63c0.58,0,0.89,0.06,1.64,0.16V52.46z">
  </path>
  <path class="st1" d="M63.44,59.63c0,5.58,2.44,8.79,6.65,8.79c4.14,0,6.58-3.26,6.58-8.85c0-5.43-2.49-8.64-6.69-8.64
		C65.94,50.94,63.44,54.21,63.44,59.63z M84.23,59.63c0,8.74-5.58,14.42-14.14,14.42c-8.56,0-14.19-5.73-14.19-14.42
		c0-8.64,5.69-14.38,14.3-14.38C78.64,45.25,84.23,50.99,84.23,59.63z">
  </path>
  <path class="st1" d="M103.66,73.23V57.36c0-3.37-0.64-5.9-4.68-5.9c-4.52,0-5.95,3.22-5.95,7.17v14.6h-7.49V46.04h7.17v3.79
		c2.17-2.89,5.21-4.53,9.1-4.53c5.78,0,9.5,3.42,9.5,9.74v18.18H103.66z">
  </path>
  <path class="st1" d="M140.51,42.63v-6.94l-26.59-0.01v37.51h8.35V56.68h11.2v2.87l3.5-3.18l3.49-3.17l-3.49-3.17l-3.5-3.18v2.87
		h-11.2v2.69l-3.5-3.16l-3.49-3.18l3.49-3.17l3.5-3.17v2.9H140.51z">
  </path>
  <path class="st1" d="M142.13,35.68h9.65l7.42,11.97l7.69-11.97h9.12l-12.14,17.9l13.2,19.6h-9.92l-8.27-12.97l-8.43,12.97h-9.33
		l13.2-19.65L142.13,35.68z">
  </path>
  <path class="st1" d="M31.63,89.96c-1.05,0-1.96-0.26-2.56-0.71l-0.18-1.95c0.82,0.65,1.71,0.96,2.65,0.96
		c0.76,0,1.18-0.31,1.18-0.81c0-0.5-0.29-0.75-1.34-1.12c-1.47-0.51-2.25-1.45-2.25-2.6c0-1.42,1.07-2.55,2.93-2.55
		c1.05,0,1.7,0.27,2.07,0.5l-0.16,1.71c-0.4-0.26-1.09-0.53-1.76-0.53c-0.73,0-1.07,0.31-1.07,0.72c0,0.39,0.29,0.65,1.29,0.97
		c1.36,0.45,2.35,1.38,2.35,2.69C34.78,88.88,33.71,89.96,31.63,89.96z">
  </path>
  <path class="st1" d="M44.59,82.96c-1.27,0-2.47,1.03-2.47,2.59c0,1.58,1.2,2.61,2.47,2.61c1.27,0,2.48-1.03,2.48-2.61
		C47.07,83.99,45.86,82.96,44.59,82.96z M44.59,89.96c-2.34,0-4.55-1.7-4.55-4.41c0-2.68,2.21-4.38,4.55-4.38
		c2.35,0,4.56,1.7,4.56,4.38C49.15,88.26,46.93,89.96,44.59,89.96z">
  </path>
  <path class="st1" d="M54.86,89.76v-8.39h2.06v6.64h3.39v1.75H54.86z">
  </path>
  <defs>
   <filter id="Adobe_OpacityMaskFilter" filterUnits="userSpaceOnUse" x="65.8" y="24.84" width="125.57" height="65.12">
    <feColorMatrix type="matrix" values="1 0 0 0 0  0 1 0 0 0  0 0 1 0 0  0 0 0 1 0">
    </feColorMatrix>
   </filter>
  </defs>
  <mask maskUnits="userSpaceOnUse" x="65.8" y="24.84" width="125.57" height="65.12" id="mask0_1_">
   <path class="st2" d="M0,100h201.26V-1.09H0V100z">
   </path>
  </mask>
  <g class="st3">
   <path class="st1" d="M65.8,89.76h2.06v-8.39H65.8V89.76z">
   </path>
   <path class="st1" d="M76.58,83.13h-0.63v4.89h0.63c1.47,0,2.71-0.82,2.71-2.45C79.29,83.94,78.05,83.13,76.58,83.13z M76.82,89.76
			h-2.85v-8.39h2.85c2.44,0,4.53,1.58,4.53,4.19C81.35,88.18,79.26,89.76,76.82,89.76z">
   </path>
   <path class="st1" d="M98.56,83.01v6.76h-2.05v-6.77h-2.56v-1.62h7.15v1.63H98.56z">
   </path>
   <path class="st1" d="M109.34,82.98h-0.88v1.88h0.88c0.53,0,1.06-0.29,1.06-0.94C110.4,83.28,109.87,82.98,109.34,82.98z
			 M111.47,89.76l-2.28-3.3h-0.73v3.3h-1.98v-8.39h3.16c1.45,0,2.73,0.96,2.73,2.54c0,0.98-0.58,1.77-1.29,2.1l2.69,3.75H111.47z">
   </path>
   <path class="st1" d="M122.4,84.79c-0.09-0.24-0.19-0.56-0.27-0.86h-0.03c-0.07,0.3-0.17,0.62-0.26,0.86l-0.61,1.68h1.78
			L122.4,84.79z M124.18,89.76l-0.67-1.75h-2.78l-0.65,1.75h-1.94l3.34-8.46h1.41l3.33,8.46H124.18z">
   </path>
   <path class="st1" d="M134.21,83.13h-0.63v4.89h0.63c1.47,0,2.72-0.82,2.72-2.45C136.93,83.94,135.68,83.13,134.21,83.13z
			 M134.45,89.76h-2.86v-8.39h2.86c2.44,0,4.54,1.58,4.54,4.19C138.99,88.18,136.89,89.76,134.45,89.76z">
   </path>
   <path class="st1" d="M144.82,89.76h2.05v-8.39h-2.05V89.76z">
   </path>
   <path class="st1" d="M159.89,89.86l-3.29-3.58c-0.53-0.58-1.13-1.29-1.58-1.84L155,84.45c0.03,0.59,0.04,1.23,0.04,1.76v3.55
			h-2.06v-8.39h1.66l2.87,3.13c0.39,0.43,0.99,1.12,1.37,1.6l0.03-0.01c-0.03-0.5-0.04-1.04-0.04-1.56v-3.15h2.06v8.48H159.89z">
   </path>
   <path class="st1" d="M171.33,89.96c-2.33,0-4.69-1.52-4.69-4.39c0-2.89,2.42-4.39,4.65-4.39c1.18,0,2.1,0.29,2.69,0.67l-0.16,1.79
			c-0.58-0.42-1.39-0.7-2.32-0.7c-1.54,0-2.81,1.02-2.81,2.68c0,1.58,1.2,2.6,2.74,2.6c0.49,0,0.86-0.08,1.15-0.25v-1.18h-1.54
			v-1.57h3.42v3.87C173.75,89.66,172.7,89.96,171.33,89.96z">
   </path>
   <path class="st1" d="M176.39,24.84h14.98v14.85L176.39,24.84z">
   </path>
   <path class="st1" d="M184.67,73.16v-3.58h0.88l0.91,2.86l0.88-2.86h0.87v3.58h-0.55v-3l-0.93,3h-0.54l-0.97-3.05v3.05H184.67z
			 M182.48,73.16v-3.05h-1.17v-0.53h2.95v0.53h-1.18v3.05H182.48z">
   </path>
  </g>
 </g>
</svg>