<svg version="1.1" id="Layer_1" xmlns:x="ns_extend;" xmlns:i="ns_ai;" xmlns:graph="ns_graphs;" xmlns="http://www.w3.org/2000/svg" xmlns:xlink="http://www.w3.org/1999/xlink" x="0px" y="0px" viewBox="0 0 201.23 100" style="enable-background:new 0 0 201.23 100;" xml:space="preserve">
 <style type="text/css">
  .st0{fill:#FFFFFF;}
 </style>
 <metadata>
  <sfw xmlns="ns_sfw;">
   <slices>
   </slices>
   <sliceSourceBounds bottomLeftOrigin="true" height="100" width="201.23" x="-77.82" y="0">
   </sliceSourceBounds>
  </sfw>
 </metadata>
 <g>
  <path class="st0" d="M76.58,83.13h-0.63v4.89h0.63c1.47,0,2.71-0.82,2.71-2.45C79.29,83.94,78.05,83.13,76.58,83.13z">
  </path>
  <path class="st0" d="M69.98,50.94c-4.04,0-6.54,3.27-6.54,8.7c0,5.58,2.44,8.79,6.65,8.79c4.14,0,6.58-3.26,6.58-8.85
		C76.67,54.15,74.18,50.94,69.98,50.94z">
  </path>
  <path class="st0" d="M122.13,83.94h-0.03c-0.07,0.3-0.17,0.62-0.26,0.86l-0.61,1.68h1.78l-0.61-1.68
		C122.3,84.56,122.21,84.24,122.13,83.94z">
  </path>
  <path class="st0" d="M134.21,83.13h-0.63v4.89h0.63c1.47,0,2.72-0.82,2.72-2.45C136.93,83.94,135.68,83.13,134.21,83.13z">
  </path>
  <path class="st0" d="M109.34,82.98h-0.88v1.88h0.88c0.53,0,1.06-0.29,1.06-0.94C110.4,83.28,109.87,82.98,109.34,82.98z">
  </path>
  <path class="st0" d="M44.59,82.96c-1.27,0-2.47,1.03-2.47,2.59c0,1.58,1.2,2.61,2.47,2.61c1.27,0,2.48-1.03,2.48-2.61
		C47.07,83.99,45.86,82.96,44.59,82.96z">
  </path>
  <path class="st0" d="M0,0v85.12L16.34,100h184.89V0H0z M31.63,89.96c-1.05,0-1.96-0.26-2.56-0.71l-0.18-1.95
		c0.82,0.65,1.71,0.96,2.65,0.96c0.76,0,1.18-0.31,1.18-0.81c0-0.5-0.29-0.75-1.34-1.12c-1.47-0.51-2.25-1.45-2.25-2.6
		c0-1.42,1.07-2.55,2.93-2.55c1.05,0,1.7,0.27,2.07,0.5l-0.16,1.71c-0.4-0.26-1.09-0.53-1.76-0.53c-0.73,0-1.07,0.31-1.07,0.72
		c0,0.39,0.29,0.65,1.29,0.97c1.36,0.45,2.35,1.38,2.35,2.69C34.78,88.88,33.71,89.96,31.63,89.96z M35.44,73.75h-7.59v-37.5h7.59
		V73.75z M44.59,89.96c-2.34,0-4.55-1.7-4.55-4.41c0-2.68,2.21-4.38,4.55-4.38c2.35,0,4.56,1.7,4.56,4.38
		C49.15,88.26,46.93,89.96,44.59,89.96z M45.25,60.79v12.44h-7.54V46.04h7.17v5c1.7-3.53,4.8-5.63,8.88-5.63
		c0.58,0,0.89,0.06,1.64,0.16v6.9c-1.32-0.26-2.07-0.31-2.92-0.31C47.27,52.15,45.25,55.84,45.25,60.79z M60.31,89.76h-5.45v-8.39
		h2.06v6.64h3.39V89.76z M67.86,89.76H65.8v-8.39h2.06V89.76z M76.82,89.76h-2.85v-8.39h2.85c2.44,0,4.53,1.58,4.53,4.19
		C81.35,88.18,79.26,89.76,76.82,89.76z M70.09,74.05c-8.56,0-14.19-5.73-14.19-14.42c0-8.64,5.69-14.38,14.3-14.38
		c8.45,0,14.04,5.74,14.04,14.38C84.23,68.37,78.64,74.05,70.09,74.05z M101.11,83.01h-2.55v6.76h-2.05v-6.77h-2.56v-1.62h7.15
		V83.01z M98.98,51.46c-4.52,0-5.95,3.22-5.95,7.17v14.6h-7.49V46.04h7.17v3.79c2.17-2.89,5.21-4.53,9.1-4.53
		c5.78,0,9.5,3.42,9.5,9.74v18.18h-7.65V57.36C103.66,53.99,103.03,51.46,98.98,51.46z M111.47,89.76l-2.28-3.3h-0.73v3.3h-1.98
		v-8.39h3.16c1.45,0,2.73,0.96,2.73,2.54c0,0.98-0.58,1.77-1.29,2.1l2.69,3.75H111.47z M124.18,89.76l-0.67-1.75h-2.78l-0.65,1.75
		h-1.94l3.34-8.46h1.41l3.33,8.46H124.18z M134.45,89.76h-2.86v-8.39h2.86c2.44,0,4.54,1.58,4.54,4.19
		C138.99,88.18,136.89,89.76,134.45,89.76z M140.51,42.63h-18.25v-2.9l-3.5,3.17l-3.49,3.17l3.49,3.18l3.5,3.16v-2.69h11.2v-2.87
		l3.5,3.18l3.49,3.17l-3.49,3.17l-3.5,3.18v-2.87h-11.2v16.51h-8.35V35.68l26.59,0.01V42.63z M146.88,89.76h-2.05v-8.39h2.05V89.76z
		 M160.93,89.86h-1.03l-3.29-3.58c-0.53-0.58-1.13-1.29-1.58-1.84L155,84.45c0.03,0.59,0.04,1.23,0.04,1.76v3.55h-2.06v-8.39h1.66
		l2.87,3.13c0.39,0.43,0.99,1.12,1.37,1.6l0.03-0.01c-0.03-0.5-0.04-1.04-0.04-1.56v-3.15h2.06V89.86z M174.47,89.09
		c-0.71,0.56-1.76,0.87-3.13,0.87c-2.33,0-4.69-1.52-4.69-4.39c0-2.89,2.42-4.39,4.65-4.39c1.18,0,2.1,0.29,2.69,0.67l-0.16,1.79
		c-0.58-0.42-1.39-0.7-2.32-0.7c-1.54,0-2.81,1.02-2.81,2.68c0,1.58,1.2,2.6,2.74,2.6c0.49,0,0.86-0.08,1.15-0.25v-1.18h-1.54v-1.57
		h3.42V89.09z M167.14,73.18l-8.27-12.97l-8.43,12.97h-9.33l13.2-19.65l-12.19-17.85h9.65l7.42,11.97l7.69-11.97h9.12l-12.14,17.9
		l13.2,19.6H167.14z M184.26,70.12h-1.18v3.05h-0.6v-3.05h-1.17v-0.53h2.95V70.12z M188.22,73.16h-0.55v-3l-0.93,3h-0.54l-0.97-3.05
		v3.05h-0.55v-3.58h0.88l0.91,2.86l0.88-2.86h0.87V73.16z M191.38,39.69l-14.98-14.85h14.98V39.69z">
  </path>
 </g>
</svg>