<svg width="199" height="49" viewBox="0 0 199 49" fill="none" xmlns="http://www.w3.org/2000/svg">
<path d="M63.4318 33.2472C62.0568 33.2472 60.875 32.9659 59.8864 32.4034C58.9034 31.8352 58.1449 31.0455 57.6108 30.0341C57.0824 29.017 56.8182 27.8381 56.8182 26.4972C56.8182 25.1506 57.0824 23.9716 57.6108 22.9602C58.1449 21.9432 58.9034 21.1534 59.8864 20.5909C60.875 20.0227 62.0568 19.7386 63.4318 19.7386C64.8068 19.7386 65.9858 20.0227 66.9688 20.5909C67.9574 21.1534 68.7159 21.9432 69.2443 22.9602C69.7784 23.9716 70.0455 25.1506 70.0455 26.4972C70.0455 27.8381 69.7784 29.017 69.2443 30.0341C68.7159 31.0455 67.9574 31.8352 66.9688 32.4034C65.9858 32.9659 64.8068 33.2472 63.4318 33.2472ZM63.4574 30.1023C63.9574 30.1023 64.3807 29.9489 64.7273 29.642C65.0739 29.3352 65.3381 28.9091 65.5199 28.3636C65.7074 27.8182 65.8011 27.1875 65.8011 26.4716C65.8011 25.7443 65.7074 25.108 65.5199 24.5625C65.3381 24.017 65.0739 23.5909 64.7273 23.2841C64.3807 22.9773 63.9574 22.8239 63.4574 22.8239C62.9403 22.8239 62.5028 22.9773 62.1449 23.2841C61.7926 23.5909 61.5227 24.017 61.3352 24.5625C61.1534 25.108 61.0625 25.7443 61.0625 26.4716C61.0625 27.1875 61.1534 27.8182 61.3352 28.3636C61.5227 28.9091 61.7926 29.3352 62.1449 29.642C62.5028 29.9489 62.9403 30.1023 63.4574 30.1023ZM78.2912 33.2472C76.9105 33.2472 75.7259 32.9631 74.7372 32.3949C73.7543 31.8267 72.9986 31.0369 72.4702 30.0256C71.9418 29.0085 71.6776 27.8324 71.6776 26.4972C71.6776 25.1562 71.9418 23.9801 72.4702 22.9688C73.0043 21.9517 73.7628 21.1591 74.7457 20.5909C75.7344 20.0227 76.9134 19.7386 78.2827 19.7386C79.4929 19.7386 80.5469 19.9574 81.4446 20.3949C82.348 20.8324 83.0526 21.4517 83.5582 22.2528C84.0696 23.0483 84.3395 23.983 84.3679 25.0568H80.473C80.3935 24.3864 80.1662 23.8608 79.7912 23.4801C79.4219 23.0994 78.9389 22.9091 78.3423 22.9091C77.8594 22.9091 77.4361 23.0455 77.0724 23.3182C76.7088 23.5852 76.4247 23.983 76.2202 24.5114C76.0213 25.0341 75.9219 25.6818 75.9219 26.4545C75.9219 27.2273 76.0213 27.8807 76.2202 28.4148C76.4247 28.9432 76.7088 29.3437 77.0724 29.6165C77.4361 29.8835 77.8594 30.017 78.3423 30.017C78.7287 30.017 79.0696 29.9347 79.3651 29.7699C79.6662 29.6051 79.9134 29.3636 80.1065 29.0455C80.2997 28.7216 80.4219 28.3295 80.473 27.8693H84.3679C84.3281 28.9489 84.0582 29.892 83.5582 30.6989C83.0639 31.5057 82.3679 32.1335 81.4702 32.5824C80.5781 33.0256 79.5185 33.2472 78.2912 33.2472ZM93.8899 19.9091V22.9773H85.6314V19.9091H93.8899ZM87.3615 16.7727H91.5291V28.8835C91.5291 29.1392 91.5689 29.3466 91.6484 29.5057C91.7337 29.6591 91.8558 29.7699 92.0149 29.8381C92.174 29.9006 92.3643 29.9318 92.5859 29.9318C92.745 29.9318 92.9126 29.9176 93.0888 29.8892C93.2706 29.8551 93.407 29.8267 93.4979 29.804L94.1286 32.8125C93.9297 32.8693 93.6484 32.9403 93.2848 33.0256C92.9268 33.1108 92.4979 33.1648 91.9979 33.1875C91.0206 33.233 90.1825 33.1193 89.4837 32.8466C88.7905 32.5682 88.2592 32.1364 87.8899 31.5511C87.5263 30.9659 87.3501 30.2301 87.3615 29.3438V16.7727ZM101.987 33.2472C100.612 33.2472 99.4297 32.9659 98.4411 32.4034C97.4581 31.8352 96.6996 31.0455 96.1655 30.0341C95.6371 29.017 95.3729 27.8381 95.3729 26.4972C95.3729 25.1506 95.6371 23.9716 96.1655 22.9602C96.6996 21.9432 97.4581 21.1534 98.4411 20.5909C99.4297 20.0227 100.612 19.7386 101.987 19.7386C103.362 19.7386 104.54 20.0227 105.523 20.5909C106.512 21.1534 107.271 21.9432 107.799 22.9602C108.333 23.9716 108.6 25.1506 108.6 26.4972C108.6 27.8381 108.333 29.017 107.799 30.0341C107.271 31.0455 106.512 31.8352 105.523 32.4034C104.54 32.9659 103.362 33.2472 101.987 33.2472ZM102.012 30.1023C102.512 30.1023 102.935 29.9489 103.282 29.642C103.629 29.3352 103.893 28.9091 104.075 28.3636C104.262 27.8182 104.356 27.1875 104.356 26.4716C104.356 25.7443 104.262 25.108 104.075 24.5625C103.893 24.017 103.629 23.5909 103.282 23.2841C102.935 22.9773 102.512 22.8239 102.012 22.8239C101.495 22.8239 101.058 22.9773 100.7 23.2841C100.347 23.5909 100.077 24.017 99.8899 24.5625C99.7081 25.108 99.6172 25.7443 99.6172 26.4716C99.6172 27.1875 99.7081 27.8182 99.8899 28.3636C100.077 28.9091 100.347 29.3352 100.7 29.642C101.058 29.9489 101.495 30.1023 102.012 30.1023ZM111.57 33V19.9091H112.585V21.8864H112.687C112.937 21.2273 113.369 20.7045 113.982 20.3182C114.596 19.9318 115.335 19.7386 116.198 19.7386C117.147 19.7386 117.911 19.9659 118.491 20.4205C119.076 20.875 119.496 21.4915 119.752 22.2699H119.846C120.102 21.5028 120.559 20.8892 121.218 20.429C121.883 19.9688 122.701 19.7386 123.673 19.7386C124.94 19.7386 125.906 20.1392 126.57 20.9403C127.241 21.7358 127.576 22.8267 127.576 24.2131V33H126.536V24.2131C126.536 23.1222 126.275 22.2642 125.752 21.6392C125.229 21.0142 124.462 20.7017 123.451 20.7017C122.371 20.7017 121.542 21.0398 120.962 21.7159C120.383 22.392 120.093 23.2528 120.093 24.2983V33H119.053V24.1449C119.053 23.1278 118.798 22.3011 118.286 21.6648C117.775 21.0227 117.008 20.7017 115.985 20.7017C115.292 20.7017 114.692 20.8608 114.187 21.179C113.687 21.4972 113.298 21.9347 113.019 22.4915C112.746 23.0483 112.61 23.6875 112.61 24.4091V33H111.57ZM131.891 33V19.9091H132.905V21.8864H133.007C133.257 21.2273 133.689 20.7045 134.303 20.3182C134.916 19.9318 135.655 19.7386 136.518 19.7386C137.467 19.7386 138.232 19.9659 138.811 20.4205C139.396 20.875 139.817 21.4915 140.072 22.2699H140.166C140.422 21.5028 140.879 20.8892 141.538 20.429C142.203 19.9688 143.021 19.7386 143.993 19.7386C145.26 19.7386 146.226 20.1392 146.891 20.9403C147.561 21.7358 147.896 22.8267 147.896 24.2131V33H146.857V24.2131C146.857 23.1222 146.595 22.2642 146.072 21.6392C145.55 21.0142 144.783 20.7017 143.771 20.7017C142.692 20.7017 141.862 21.0398 141.283 21.7159C140.703 22.392 140.413 23.2528 140.413 24.2983V33H139.374V24.1449C139.374 23.1278 139.118 22.3011 138.607 21.6648C138.095 21.0227 137.328 20.7017 136.305 20.7017C135.612 20.7017 135.013 20.8608 134.507 21.179C134.007 21.4972 133.618 21.9347 133.339 22.4915C133.067 23.0483 132.93 23.6875 132.93 24.4091V33H131.891ZM157.316 33.2727C156.134 33.2727 155.106 32.9801 154.231 32.3949C153.356 31.8097 152.68 31.0085 152.202 29.9915C151.725 28.9744 151.487 27.8153 151.487 26.5142C151.487 25.2074 151.725 24.0426 152.202 23.0199C152.685 21.9972 153.347 21.1903 154.188 20.5994C155.029 20.0085 155.989 19.7131 157.069 19.7131C157.802 19.7131 158.495 19.8608 159.148 20.1562C159.808 20.446 160.387 20.8665 160.887 21.4176C161.393 21.9687 161.788 22.6335 162.072 23.4119C162.362 24.1903 162.506 25.0653 162.506 26.0369V26.6847H152.143V25.7386H161.467C161.467 24.7898 161.273 23.9347 160.887 23.1733C160.501 22.4119 159.975 21.8068 159.31 21.358C158.646 20.9091 157.898 20.6847 157.069 20.6847C156.2 20.6847 155.424 20.929 154.742 21.4176C154.066 21.9006 153.529 22.554 153.131 23.3778C152.739 24.2017 152.535 25.1222 152.518 26.1392V26.5653C152.518 27.6562 152.708 28.6364 153.089 29.5057C153.475 30.3693 154.026 31.054 154.742 31.5597C155.458 32.0597 156.316 32.3097 157.316 32.3097C158.032 32.3097 158.643 32.1903 159.148 31.9517C159.66 31.7074 160.077 31.4119 160.401 31.0653C160.725 30.7187 160.969 30.3835 161.134 30.0597L162.08 30.4432C161.881 30.8807 161.572 31.3182 161.151 31.7557C160.737 32.1875 160.208 32.5483 159.566 32.8381C158.93 33.1278 158.18 33.2727 157.316 33.2727ZM166.086 33V19.9091H167.1V21.9545H167.194C167.478 21.2841 167.958 20.7472 168.634 20.3438C169.31 19.9347 170.08 19.7301 170.944 19.7301C171.035 19.7301 171.126 19.7301 171.217 19.7301C171.308 19.7301 171.393 19.733 171.472 19.7386V20.7869C171.404 20.7812 171.322 20.7727 171.225 20.7614C171.134 20.7443 171.021 20.7358 170.884 20.7358C170.157 20.7358 169.509 20.892 168.941 21.2045C168.379 21.517 167.935 21.9489 167.612 22.5C167.288 23.0455 167.126 23.6705 167.126 24.375V33H166.086ZM178.776 33.2727C177.663 33.2727 176.683 32.9801 175.836 32.3949C174.989 31.804 174.327 30.9972 173.85 29.9744C173.379 28.9517 173.143 27.7926 173.143 26.4972C173.143 25.2017 173.381 24.0426 173.859 23.0199C174.336 21.9972 174.998 21.1903 175.844 20.5994C176.691 20.0085 177.665 19.7131 178.768 19.7131C179.597 19.7131 180.353 19.8835 181.035 20.2244C181.722 20.5653 182.29 21.0398 182.739 21.6477C183.194 22.2557 183.484 22.9602 183.609 23.7614H182.552C182.381 22.875 181.955 22.142 181.273 21.5625C180.597 20.9773 179.765 20.6847 178.776 20.6847C177.89 20.6847 177.1 20.9347 176.407 21.4347C175.714 21.929 175.168 22.6136 174.771 23.4886C174.373 24.358 174.174 25.3551 174.174 26.4801C174.174 27.5881 174.367 28.5824 174.754 29.4631C175.14 30.3381 175.68 31.0312 176.373 31.5426C177.066 32.054 177.867 32.3097 178.776 32.3097C179.418 32.3097 180.004 32.1818 180.532 31.9261C181.066 31.6705 181.512 31.3068 181.87 30.8352C182.228 30.3636 182.464 29.8125 182.577 29.1818H183.634C183.509 29.9886 183.225 30.6989 182.782 31.3125C182.339 31.9261 181.773 32.4063 181.086 32.7528C180.398 33.0994 179.629 33.2727 178.776 33.2727ZM192.285 33.2727C191.103 33.2727 190.075 32.9801 189.2 32.3949C188.325 31.8097 187.648 31.0085 187.171 29.9915C186.694 28.9744 186.455 27.8153 186.455 26.5142C186.455 25.2074 186.694 24.0426 187.171 23.0199C187.654 21.9972 188.316 21.1903 189.157 20.5994C189.998 20.0085 190.958 19.7131 192.038 19.7131C192.771 19.7131 193.464 19.8608 194.117 20.1562C194.776 20.446 195.356 20.8665 195.856 21.4176C196.362 21.9687 196.756 22.6335 197.04 23.4119C197.33 24.1903 197.475 25.0653 197.475 26.0369V26.6847H187.112V25.7386H196.435C196.435 24.7898 196.242 23.9347 195.856 23.1733C195.469 22.4119 194.944 21.8068 194.279 21.358C193.614 20.9091 192.867 20.6847 192.038 20.6847C191.168 20.6847 190.393 20.929 189.711 21.4176C189.035 21.9006 188.498 22.554 188.1 23.3778C187.708 24.2017 187.504 25.1222 187.487 26.1392V26.5653C187.487 27.6562 187.677 28.6364 188.058 29.5057C188.444 30.3693 188.995 31.054 189.711 31.5597C190.427 32.0597 191.285 32.3097 192.285 32.3097C193.001 32.3097 193.612 32.1903 194.117 31.9517C194.629 31.7074 195.046 31.4119 195.37 31.0653C195.694 30.7187 195.938 30.3835 196.103 30.0597L197.049 30.4432C196.85 30.8807 196.54 31.3182 196.12 31.7557C195.705 32.1875 195.177 32.5483 194.535 32.8381C193.898 33.1278 193.148 33.2727 192.285 33.2727Z" fill="black"/>
<path fill-rule="evenodd" clip-rule="evenodd" d="M19.2007 0.0212886C16.6436 0.434705 14.6444 1.53712 13.3647 3.23939C12.4504 4.45572 11.9823 5.72082 11.6371 7.90888C11.5334 8.56578 11.4447 8.83681 11.1988 9.24972C10.5943 10.2641 10.6101 10.9191 11.2633 11.9262C11.5707 12.4003 11.614 12.5247 11.5997 12.8951C11.5908 13.1288 11.5455 15.2166 11.499 17.5346C11.4158 21.69 11.4117 21.7584 11.2023 22.4211C10.9489 23.223 10.6523 23.7095 10.0824 24.2588C9.5738 24.749 9.34365 24.9097 8.61629 25.2825C8.31055 25.4392 7.9448 25.6647 7.80356 25.7836C7.66223 25.9025 7.52335 25.9997 7.49478 25.9997C7.26834 25.9997 4.45193 27.352 4.32645 27.521C4.30328 27.5522 4.18951 27.6066 4.07363 27.6419C3.52038 27.8103 2.63677 28.43 1.91144 29.1583C1.07814 29.9951 0.71265 30.5882 0.431346 31.5602C0.344208 31.8614 0.211478 32.3163 0.136474 32.5712C-0.10876 33.4039 -0.0100766 35.7169 0.325162 36.9943C0.700177 38.4234 1.59153 39.6602 3.02738 40.7436C3.38487 41.0134 3.84255 41.2803 4.04447 41.3369C4.80344 41.5493 5.46043 41.2757 5.71426 40.6414C5.87379 40.2428 5.94795 39.2913 5.84134 39.0109C5.80317 38.9106 5.47518 38.5704 5.11238 38.2549C4.25878 37.5125 3.8171 36.9383 3.47841 36.1308C3.24877 35.583 3.19845 35.3421 3.16601 34.6353C3.13163 33.8873 3.15236 33.7173 3.35116 33.1188C3.87264 31.5484 4.72532 30.7462 7.02319 29.6643C10.845 27.8651 11.9381 27.1444 13.1723 25.6104C13.447 25.2692 13.6917 25.0225 13.7162 25.0621C13.8254 25.2386 12.9583 27.7961 12.3129 29.2012C12.132 29.5951 11.6744 30.505 11.2961 31.2232C10.0703 33.5502 9.51843 34.9181 9.12041 36.6152C8.90383 37.5387 8.81113 39.7893 8.95549 40.6183C9.09117 41.397 9.48692 42.397 9.9103 43.0309C10.2674 43.5654 11.4036 44.7329 11.8894 45.0644C12.0397 45.167 12.1629 45.2747 12.1633 45.3039C12.1636 45.3329 12.0519 45.4031 11.9152 45.4597C11.5216 45.6227 11.0825 46.101 11.0198 46.4347C10.989 46.5988 10.981 46.9407 11.0021 47.1943C11.0456 47.7199 11.2928 48.0501 11.8614 48.3423C12.1437 48.4874 12.2812 48.5033 12.8194 48.4529C14.1863 48.3248 15.25 47.9004 16.0852 47.1497C16.8871 46.4289 17.1659 46.3176 18.4157 46.2193C19.5574 46.1296 21.268 45.8008 21.7274 45.5829C22.1495 45.3826 22.3609 44.9955 22.3609 44.4224C22.3609 44.0169 22.3249 43.9099 22.1039 43.6582C21.6395 43.1295 21.1862 43.0914 19.5799 43.4461C18.6656 43.6481 18.2441 43.6544 18.1723 43.4674C18.1426 43.39 18.1833 42.9256 18.2628 42.4353C18.3423 41.945 18.451 40.9295 18.5046 40.1786C18.6096 38.7051 18.523 37.0083 18.1354 32.9503C17.7748 29.1757 17.9273 25.7651 18.5685 23.2615C18.8807 22.0425 19.0486 21.8276 19.6374 21.894C20.2531 21.9633 20.2541 21.9659 20.2541 23.5624C20.2541 26.6036 20.8614 29.0014 22.0665 30.7179C22.803 31.7669 24.1264 32.8157 25.3186 33.2949C26.4296 33.7415 26.6812 34.0045 27.7701 35.857C29.1633 38.2273 30.8483 39.6994 33.0192 40.4432C34.1353 40.8255 34.1649 40.9442 33.5989 42.7655C33.2347 43.9374 32.8483 44.887 32.2793 46.0084C31.7381 47.075 31.6743 47.5501 31.9982 48.1027C32.3093 48.6333 32.8915 49 33.4228 49C34.1957 49 34.5839 48.573 35.5314 46.6799C36.3427 45.0593 37.0364 42.8303 37.1578 41.4541C37.2385 40.5398 37.2893 40.4324 37.6931 40.3237C38.2537 40.1728 39.3934 39.6689 39.9351 39.3325C41.7804 38.1864 43.2022 36.3193 44.0072 33.9856C44.4486 32.7059 44.5616 31.9574 44.5579 30.3386C44.5524 27.8788 43.9699 25.6955 42.8065 23.7741C42.5948 23.4244 42.5299 23.2454 42.5891 23.1741C42.7905 22.9315 43.8305 22.9807 44.7742 23.2774C45.4104 23.4775 46.2779 24.3303 46.5298 25.0034C47.0807 26.4755 46.9035 27.854 45.8927 29.9594C45.5924 30.585 45.3283 31.2328 45.3057 31.399C45.1697 32.4014 46.8044 33.3744 47.7035 32.8264C48.4079 32.3971 49.5643 30.0624 49.869 28.4547C50.0423 27.5398 50.044 25.7776 49.872 24.922C49.7212 24.1706 49.2343 23.0901 48.7534 22.4394C47.8718 21.2463 46.457 20.3269 45.0101 20.0065C43.8691 19.754 42.2983 19.8177 41.0695 20.1665C40.5829 20.3046 40.1009 20.4375 39.9985 20.4617C39.8605 20.4944 39.6551 20.3803 39.2047 20.0205C38.5503 19.4978 37.3029 18.8252 36.684 18.6615C35.9429 18.4653 35.3751 18.7281 35.1248 19.3833C34.8143 20.1964 35.151 20.6937 36.472 21.373C37.0554 21.6729 37.3598 21.8771 37.3605 21.9688C37.3614 22.1016 36.4568 22.9625 35.5496 23.6919C34.4651 24.5641 33.113 25.3092 31.8316 25.7408C30.0464 26.3422 29.3109 25.9501 28.9798 24.2203C28.6759 22.6323 28.3559 16.2091 28.4675 13.9363L28.5241 12.7833L28.8892 12.4183C29.3373 11.9704 29.4731 11.528 29.42 10.6907C29.3841 10.1282 29.3485 10.0333 28.9373 9.4071C28.5229 8.77607 28.497 8.70639 28.5487 8.36173C28.6216 7.87594 28.4085 6.50258 28.129 5.65611C27.4491 3.5978 25.8784 1.8635 23.6965 0.762269C22.6387 0.228376 21.865 0.0431937 20.549 0.00890384C19.9465 -0.00676671 19.3397 -0.00120624 19.2007 0.0212886ZM20.1791 0.703547C20.9225 1.10104 21.1552 1.37275 21.2241 1.92391C21.3118 2.62555 21.5001 2.88066 21.9841 2.9532C22.3851 3.01335 22.7823 3.31497 22.7823 3.55929C22.7823 3.62206 22.8202 3.67337 22.8665 3.67337C22.9129 3.67337 22.9508 3.80379 22.9508 3.96327C22.9508 4.12276 22.9129 4.2766 22.8665 4.30524C22.8202 4.33389 22.7823 4.56137 22.7823 4.81075C22.7823 5.06013 22.8202 5.2876 22.8665 5.31625C22.9129 5.34489 22.9508 5.42165 22.9508 5.48694C22.9508 5.65451 22.3844 6.20088 22.2106 6.20096C22.131 6.20096 21.8231 6.31588 21.5263 6.45624C20.7802 6.80908 20.3888 6.88128 19.0549 6.91203C17.9066 6.93849 17.8956 6.94059 17.6108 7.19065C17.228 7.52664 16.7778 7.58519 15.8297 7.42234C14.8402 7.2524 14.4134 7.02905 13.9927 6.46138C13.8077 6.21166 13.6956 6.03162 13.7436 6.06127C13.915 6.16718 14.0716 4.80754 13.9354 4.39497C13.8706 4.19884 13.8547 3.90548 13.8915 3.58802C13.9405 3.16627 14.0024 3.02919 14.2924 2.69977C15.1073 1.77428 16.3842 1.11587 18.0234 0.776171C19.2441 0.523167 19.8063 0.504211 20.1791 0.703547ZM14.1833 9.10506C14.8426 9.61234 14.9444 9.85119 14.8846 10.7504C14.8382 11.4472 14.8281 11.4749 14.5101 11.7805C13.9507 12.3181 12.9429 12.4893 12.2643 12.162C11.9234 11.9975 11.5139 11.3944 11.4011 10.8907C11.3144 10.503 11.3204 10.3746 11.4432 10.0051C11.7062 9.21358 12.3354 8.79056 13.313 8.74801C13.6509 8.73335 13.7561 8.77649 14.1833 9.10506ZM27.6442 9.19184C28.1386 9.33861 28.683 9.86551 28.8439 10.3529C28.9645 10.718 28.8509 11.4736 28.6146 11.8779C28.3982 12.2484 27.7566 12.6203 27.2497 12.669C26.9122 12.7015 26.7401 12.6652 26.3692 12.4838C25.5787 12.0972 25.2402 11.4864 25.3414 10.6295C25.4227 9.94066 25.946 9.42741 26.8093 9.18982C27.0278 9.12967 27.2092 9.07709 27.2123 9.07288C27.2155 9.06875 27.4099 9.12234 27.6442 9.19184ZM12.5931 9.38933C12.2264 9.59043 11.9199 10.1648 11.9148 10.6606C11.9099 11.1406 12.1941 11.7295 12.5336 11.9428C12.8676 12.1527 13.4531 12.1106 13.7054 11.8585C13.855 11.7088 13.8656 11.6536 13.7802 11.4661C13.6015 11.074 13.6529 10.8305 13.937 10.7233C14.2699 10.5977 14.3259 10.3464 14.1137 9.93047C13.8033 9.32235 13.1434 9.08746 12.5931 9.38933ZM26.5746 9.71849C26.1444 9.93325 25.8801 10.4869 25.9209 11.0874C25.9653 11.7385 26.1258 12.0221 26.5746 12.2424C27.1342 12.5169 27.3997 12.4966 27.5378 12.1682C27.5997 12.0212 27.6314 11.7611 27.6085 11.59C27.5709 11.3102 27.5973 11.2557 27.8713 11.0469C28.2256 10.7766 28.2475 10.6061 27.9871 10.1428C27.6734 9.58487 27.1543 9.42892 26.5746 9.71849ZM22.9378 14.5126C23.1071 14.622 23.1272 14.6839 23.0782 14.9451C22.9406 15.6784 22.3701 16.4171 21.6446 16.8014C21.275 16.9971 21.1249 17.0247 20.4226 17.0258C19.7312 17.0269 19.5571 16.9966 19.146 16.8039C18.8843 16.6813 18.5113 16.4221 18.3171 16.228C17.691 15.602 17.3573 14.5914 17.7048 14.3732C17.8082 14.3083 18.5823 14.2962 20.2962 14.3328C22.2717 14.3748 22.778 14.4093 22.9378 14.5126ZM23.9222 21.7635C24.091 22.1674 24.5179 23.8607 24.6291 24.5674C24.6765 24.8686 24.7923 25.9302 24.8864 26.9264C24.9805 27.9227 25.0767 28.8208 25.1 28.9222C25.1234 29.0237 25.1101 29.1267 25.0704 29.1512C24.7068 29.3758 23.7277 27.1541 23.5493 25.6995C23.4304 24.7302 23.4297 22.5666 23.5482 22.0562C23.7191 21.3199 23.7324 21.3095 23.9222 21.7635ZM40.3802 24.757C41.5505 26.462 42.137 28.88 41.9241 31.1217C41.7042 33.4375 40.8656 35.1909 39.3389 36.5264C38.8244 36.9766 37.0811 37.924 36.9343 37.8332C36.8862 37.8036 36.7568 37.5754 36.6465 37.3263C36.2858 36.5107 35.6761 35.6753 34.805 34.803C33.5058 33.5018 32.5686 32.9308 29.3134 31.4572L28.3022 30.9993L28.0814 30.0995C27.8239 29.05 27.7431 28.5272 27.8382 28.5272C27.8755 28.5272 28.2606 28.6691 28.694 28.8425C29.474 29.1546 29.4939 29.1577 30.6618 29.1563C31.8113 29.1549 31.8655 29.1465 32.7686 28.8312C34.8086 28.119 36.8753 26.8651 38.7395 25.2087C39.8277 24.2417 39.9949 24.1956 40.3802 24.757ZM14.8024 31.3716C14.831 31.8704 14.9578 33.2068 15.0843 34.3415C15.2771 36.0696 15.3152 36.7808 15.3192 38.7215C15.3242 41.1113 15.2734 41.6153 14.8962 42.9231L14.7657 43.3755L14.4571 43.3255C13.933 43.2405 13.1019 42.7731 12.6418 42.3047C12.0802 41.733 11.6056 40.7995 11.484 40.0273C11.3102 38.9232 11.5368 37.1645 12.0294 35.7953C12.3011 35.0397 14.3213 30.8386 14.5419 30.5703C14.7133 30.3617 14.7514 30.4789 14.8024 31.3716ZM32.0231 36.5424C32.3681 36.7511 32.9513 37.3969 32.8309 37.437C32.6098 37.5106 31.9366 37.0061 31.4631 36.4117C31.3455 36.2642 31.351 36.2581 31.5473 36.3178C31.6629 36.3529 31.8769 36.454 32.0231 36.5424ZM13.765 45.3226C13.765 45.5633 13.4671 46.0176 13.1603 46.2448C13.0363 46.3367 12.7469 46.4299 12.517 46.4519C12.1709 46.4851 12.0685 46.4615 11.9208 46.3138C11.6966 46.0897 11.6931 45.9098 11.9115 45.8404C12.0044 45.811 12.1974 45.6885 12.3403 45.5683C12.4832 45.4481 12.7958 45.3023 13.0351 45.2443C13.6849 45.0867 13.765 45.0953 13.765 45.3226Z" fill="black"/>
</svg>
