<svg width="68" height="67" viewBox="0 0 68 67" fill="none" xmlns="http://www.w3.org/2000/svg">
<path fill-rule="evenodd" clip-rule="evenodd" d="M26.1129 0.0291089C22.6354 0.594392 19.9164 2.10177 18.1761 4.42938C16.9325 6.09251 16.296 7.82234 15.8264 10.8142C15.6854 11.7124 15.5649 12.083 15.2303 12.6476C14.4082 14.0346 14.4297 14.9301 15.3181 16.3072C15.7362 16.9555 15.795 17.1256 15.7756 17.632C15.7635 17.9516 15.7018 20.8063 15.6387 23.9758C15.5255 29.6578 15.5199 29.7513 15.2351 30.6574C14.8905 31.7538 14.4872 32.4191 13.712 33.1702C13.0204 33.8405 12.7074 34.0603 11.7182 34.57C11.3023 34.7843 10.8049 35.0926 10.6128 35.2551C10.4206 35.4176 10.2318 35.5506 10.1929 35.5506C9.88494 35.5506 6.05463 37.3997 5.88397 37.6307C5.85245 37.6734 5.69773 37.7478 5.54014 37.7961C4.78771 38.0263 3.58601 38.8736 2.59955 39.8695C1.46627 41.0137 0.969204 41.8247 0.586631 43.1537C0.468123 43.5656 0.287609 44.1877 0.185605 44.5361C-0.147914 45.6748 -0.0137042 48.8373 0.44222 50.5841C0.952241 52.5381 2.16449 54.2292 4.11724 55.7106C4.60342 56.0796 5.22587 56.4445 5.50048 56.5218C6.53267 56.8124 7.42618 56.4382 7.77139 55.5708C7.98835 55.0258 8.08921 53.7249 7.94423 53.3415C7.89231 53.2043 7.44624 52.7391 6.95284 52.3077C5.79194 51.2926 5.19126 50.5075 4.73064 49.4033C4.41832 48.6543 4.3499 48.3249 4.30577 47.3585C4.25901 46.3357 4.28721 46.1032 4.55757 45.2849C5.26679 43.1376 6.42643 42.0407 9.55154 40.5614C14.7492 38.1012 16.2358 37.1158 17.9144 35.0184C18.2879 34.5518 18.6207 34.2144 18.654 34.2685C18.8025 34.51 17.6233 38.0069 16.7456 39.9282C16.4995 40.4667 15.8772 41.7109 15.3627 42.6929C13.6957 45.8747 12.9451 47.7451 12.4038 50.0657C12.1092 51.3284 11.9831 54.4058 12.1795 55.5393C12.364 56.6041 12.9022 57.9714 13.478 58.8381C13.9636 59.5691 15.5089 61.1654 16.1695 61.6187C16.374 61.7589 16.5416 61.9062 16.542 61.9461C16.5425 61.9858 16.3906 62.0818 16.2047 62.1592C15.6694 62.3821 15.0721 63.036 14.9869 63.4923C14.945 63.7167 14.9342 64.1842 14.9628 64.531C15.0221 65.2497 15.3582 65.7011 16.1315 66.1008C16.5154 66.2991 16.7024 66.3209 17.4344 66.2519C19.2934 66.0768 20.74 65.4964 21.8758 64.47C22.9665 63.4845 23.3456 63.3323 25.0453 63.1978C26.598 63.0752 28.9245 62.6257 29.5493 62.3276C30.1234 62.0538 30.4108 61.5245 30.4108 60.7409C30.4108 60.1863 30.3619 60.04 30.0613 59.6959C29.4298 58.973 28.8133 58.921 26.6286 59.4059C25.3852 59.6821 24.8119 59.6907 24.7143 59.435C24.6739 59.3292 24.7293 58.6942 24.8374 58.0238C24.9455 57.3533 25.0934 55.9648 25.1662 54.9381C25.3091 52.9233 25.1913 50.6032 24.6642 45.0545C24.1738 39.8933 24.3811 35.2299 25.2532 31.8066C25.6777 30.1398 25.9061 29.8459 26.7068 29.9367C27.5442 30.0315 27.5455 30.0351 27.5455 32.218C27.5455 36.3763 28.3715 39.655 30.0105 42.0021C31.0121 43.4364 32.8119 44.8704 34.4332 45.5257C35.9443 46.1364 36.2865 46.496 37.7673 49.0289C39.662 52.2699 41.9537 54.2829 44.9061 55.2999C46.424 55.8227 46.4642 55.9849 45.6945 58.4752C45.1991 60.0777 44.6736 61.3761 43.8998 62.9095C43.1639 64.3678 43.0771 65.0174 43.5176 65.773C43.9406 66.4985 44.7324 67 45.455 67C46.5062 67 47.0341 66.4162 48.3228 63.8276C49.4261 61.6117 50.3695 58.5638 50.5347 56.6822C50.6443 55.4319 50.7134 55.2852 51.2626 55.1365C52.0251 54.9301 53.5751 54.2411 54.3118 53.7811C56.8213 52.2141 58.755 49.6611 59.8498 46.4701C60.45 44.7203 60.6038 43.6968 60.5988 41.4834C60.5912 38.12 59.799 35.1347 58.2168 32.5075C57.9289 32.0293 57.8407 31.7845 57.9211 31.687C58.1951 31.3554 59.6095 31.4225 60.8929 31.8283C61.7581 32.1019 62.9379 33.268 63.2805 34.1884C64.0298 36.2012 63.7888 38.0861 62.4141 40.965C62.0057 41.8203 61.6465 42.7061 61.6157 42.9334C61.4308 44.3039 63.654 45.6344 64.8768 44.8851C65.8347 44.298 67.4074 41.1057 67.8218 38.9075C68.0576 37.6564 68.0598 35.2469 67.826 34.077C67.6208 33.0496 66.9586 31.5722 66.3046 30.6824C65.1057 29.051 63.1816 27.7939 61.2137 27.3559C59.662 27.0106 57.5257 27.0977 55.8546 27.5746C55.1927 27.7635 54.5372 27.9451 54.398 27.9783C54.2102 28.023 53.9309 27.8669 53.3184 27.375C52.4284 26.6602 50.7319 25.7406 49.8903 25.5167C48.8823 25.2484 48.1102 25.6078 47.7698 26.5038C47.3474 27.6154 47.8053 28.2955 49.6019 29.2243C50.3953 29.6344 50.8094 29.9135 50.8103 30.039C50.8116 30.2205 49.5813 31.3977 48.3475 32.395C46.8726 33.5876 45.0336 34.6064 43.291 35.1966C40.863 36.0189 39.8628 35.4827 39.4125 33.1176C38.9992 30.9462 38.5641 22.1635 38.7158 19.0558L38.7928 17.4792L39.2893 16.9801C39.8987 16.3677 40.0835 15.7628 40.0111 14.6178C39.9624 13.8488 39.9139 13.7189 39.3548 12.8628C38.7911 11.9999 38.7559 11.9047 38.8263 11.4334C38.9253 10.7691 38.6356 8.89128 38.2554 7.73387C37.3308 4.91943 35.1946 2.54806 32.2273 1.04229C30.7887 0.312269 29.7365 0.0590608 27.9467 0.0121746C27.1272 -0.00925243 26.302 -0.00164935 26.1129 0.0291089ZM27.4435 0.961993C28.4546 1.5055 28.7711 1.87702 28.8647 2.63065C28.984 3.59003 29.2402 3.93886 29.8984 4.03805C30.4437 4.1203 30.9839 4.53271 30.9839 4.86679C30.9839 4.95261 31.0355 5.02277 31.0985 5.02277C31.1615 5.02277 31.2131 5.2011 31.2131 5.41917C31.2131 5.63724 31.1615 5.8476 31.0985 5.88676C31.0355 5.92593 30.9839 6.23697 30.9839 6.57796C30.9839 6.91895 31.0355 7.22999 31.0985 7.26916C31.1615 7.30832 31.2131 7.41327 31.2131 7.50255C31.2131 7.73168 30.4428 8.47875 30.2065 8.47886C30.0982 8.47886 29.6794 8.636 29.2757 8.82792C28.2611 9.31037 27.7288 9.4091 25.9146 9.45115C24.3529 9.48732 24.338 9.4902 23.9506 9.83211C23.4301 10.2915 22.8178 10.3716 21.5284 10.1489C20.1827 9.91655 19.6022 9.61116 19.03 8.83494C18.7784 8.49349 18.626 8.24731 18.6912 8.28786C18.9245 8.43267 19.1374 6.57358 18.9521 6.00945C18.8641 5.74127 18.8424 5.34014 18.8925 4.90607C18.9591 4.32938 19.0433 4.14195 19.4377 3.69153C20.546 2.42606 22.2826 1.52578 24.5118 1.06129C26.172 0.715351 26.9366 0.689431 27.4435 0.961993ZM19.2893 12.4498C20.186 13.1434 20.3244 13.47 20.2431 14.6995C20.1799 15.6523 20.1662 15.6902 19.7337 16.1081C18.9729 16.8431 17.6023 17.0772 16.6795 16.6297C16.2159 16.4048 15.6588 15.5801 15.5055 14.8913C15.3876 14.3613 15.3958 14.1857 15.5628 13.6805C15.9204 12.5982 16.7762 12.0197 18.1057 11.9616C18.5653 11.9415 18.7083 12.0005 19.2893 12.4498ZM37.596 12.5684C38.2685 12.7691 39.0089 13.4896 39.2277 14.156C39.3917 14.6553 39.2372 15.6884 38.9159 16.2412C38.6216 16.7479 37.7489 17.2564 37.0596 17.3229C36.6006 17.3673 36.3665 17.3178 35.8621 17.0697C34.787 16.5411 34.3266 15.7059 34.4643 14.5342C34.5749 13.5923 35.2866 12.8905 36.4606 12.5657C36.7578 12.4834 37.0045 12.4115 37.0088 12.4058C37.0131 12.4001 37.2774 12.4734 37.596 12.5684ZM17.1266 12.8385C16.6279 13.1134 16.211 13.8989 16.2042 14.5767C16.1975 15.233 16.584 16.0382 17.0456 16.3299C17.5 16.617 18.2963 16.5594 18.6393 16.2147C18.8429 16.01 18.8572 15.9344 18.7411 15.6781C18.498 15.142 18.5679 14.8091 18.9543 14.6625C19.4071 14.4908 19.4832 14.1471 19.1946 13.5784C18.7725 12.7469 17.8751 12.4257 17.1266 12.8385ZM36.1414 13.2885C35.5564 13.5822 35.197 14.3392 35.2525 15.1603C35.3128 16.0506 35.5311 16.4384 36.1414 16.7396C36.9025 17.115 37.2636 17.0871 37.4514 16.6381C37.5355 16.4372 37.5787 16.0814 37.5476 15.8476C37.4965 15.465 37.5323 15.3905 37.9049 15.1049C38.3869 14.7353 38.4166 14.5022 38.0624 13.8687C37.6358 13.1058 36.9298 12.8926 36.1414 13.2885ZM31.1953 19.8437C31.4257 19.9934 31.453 20.0781 31.3864 20.4352C31.1992 21.4379 30.4233 22.4479 29.4366 22.9734C28.9339 23.241 28.7299 23.2786 27.7748 23.2801C26.8344 23.2816 26.5977 23.2403 26.0386 22.9768C25.6826 22.8091 25.1754 22.4547 24.9113 22.1893C24.0597 21.3334 23.6059 19.9514 24.0785 19.6532C24.2192 19.5644 25.2719 19.5479 27.6028 19.5979C30.2896 19.6554 30.978 19.7025 31.1953 19.8437ZM32.5342 29.7582C32.7638 30.3105 33.3443 32.6258 33.4956 33.5922C33.56 34.004 33.7175 35.4555 33.8455 36.8178C33.9735 38.18 34.1043 39.408 34.136 39.5467C34.1678 39.6854 34.1497 39.8263 34.0957 39.8598C33.6013 40.167 32.2697 37.129 32.0271 35.1401C31.8654 33.8148 31.8644 30.8563 32.0256 30.1585C32.258 29.1517 32.2761 29.1374 32.5342 29.7582ZM54.9171 33.8514C56.5087 36.1828 57.3064 39.489 57.0168 42.5541C56.7177 45.7206 55.5772 48.1181 53.5009 49.9443C52.8012 50.5598 50.4304 51.8552 50.2307 51.7311C50.1653 51.6906 49.9892 51.3786 49.8393 51.038C49.3487 49.9229 48.5194 48.7805 47.3348 47.5878C45.5678 45.8086 44.2933 45.0278 39.8663 43.0129L38.4909 42.3869L38.1907 41.1564C37.8405 39.7215 37.7306 39.0066 37.86 39.0066C37.9107 39.0066 38.4344 39.2006 39.0239 39.4376C40.0846 39.8645 40.1118 39.8687 41.7001 39.8668C43.2634 39.8648 43.3371 39.8534 44.5653 39.4222C47.3397 38.4484 50.1505 36.7339 52.6857 34.469C54.1657 33.1468 54.393 33.0838 54.9171 33.8514ZM20.1313 42.8959C20.1702 43.5779 20.3427 45.4052 20.5147 46.9567C20.7768 49.3197 20.8286 50.2921 20.8341 52.9457C20.8409 56.2134 20.7719 56.9025 20.2589 58.6908L20.0814 59.3094L19.6616 59.241C18.9489 59.1247 17.8186 58.4856 17.1928 57.8452C16.429 57.0635 15.7837 55.7871 15.6183 54.7313C15.3818 53.2215 15.69 50.8168 16.3599 48.9446C16.7295 47.9115 19.477 42.1671 19.7769 41.8001C20.0101 41.515 20.0619 41.6753 20.1313 42.8959ZM43.5514 49.9662C44.0206 50.2515 44.8137 51.1345 44.65 51.1894C44.3493 51.29 43.4338 50.6002 42.7898 49.7875C42.6299 49.5858 42.6373 49.5774 42.9044 49.659C43.0615 49.7071 43.3526 49.8453 43.5514 49.9662ZM18.7205 61.9718C18.7205 62.3009 18.3153 62.9221 17.898 63.2328C17.7294 63.3583 17.3357 63.4857 17.0232 63.5159C16.5525 63.5613 16.4132 63.5289 16.2123 63.327C15.9074 63.0206 15.9026 62.7746 16.1996 62.6798C16.326 62.6395 16.5885 62.4721 16.7828 62.3077C16.9771 62.1433 17.4023 61.944 17.7277 61.8646C18.6115 61.6492 18.7205 61.661 18.7205 61.9718Z" fill="white"/>
</svg>
